<mxfile host="app.diagrams.net" modified="2024-09-05T09:19:33.676Z" agent="Mozilla/5.0 (Windows NT 10.0; Win64; x64) AppleWebKit/537.36 (KHTML, like Gecko) Chrome/128.0.0.0 Safari/537.36" version="24.6.5" etag="jzyeWaKC2EIH3JlFX04N" type="github">
  <diagram name="Page-1" id="U7nBivUYQczfugzPaiXm">
    <mxGraphModel>
      <root>
        <mxCell id="0" />
        <mxCell id="1" parent="0" />
      </root>
    </mxGraphModel>
  </diagram>
</mxfile>
